<svg width="512" height="512" viewBox="0 0 512 512" fill="none" xmlns="http://www.w3.org/2000/svg">
<path d="M124.83 110.182H134.511L153.875 142.773H154.693L174.057 110.182H183.739L158.511 151.227V180H150.057V151.227L124.83 110.182ZM250.301 145.091C250.301 152.455 248.972 158.818 246.312 164.182C243.653 169.545 240.006 173.682 235.369 176.591C230.733 179.5 225.438 180.955 219.483 180.955C213.528 180.955 208.233 179.5 203.597 176.591C198.96 173.682 195.313 169.545 192.653 164.182C189.994 158.818 188.665 152.455 188.665 145.091C188.665 137.727 189.994 131.364 192.653 126C195.313 120.636 198.96 116.5 203.597 113.591C208.233 110.682 213.528 109.227 219.483 109.227C225.438 109.227 230.733 110.682 235.369 113.591C240.006 116.5 243.653 120.636 246.312 126C248.972 131.364 250.301 137.727 250.301 145.091ZM242.119 145.091C242.119 139.045 241.108 133.943 239.085 129.784C237.085 125.625 234.369 122.477 230.938 120.341C227.528 118.205 223.71 117.136 219.483 117.136C215.256 117.136 211.426 118.205 207.994 120.341C204.585 122.477 201.869 125.625 199.847 129.784C197.847 133.943 196.847 139.045 196.847 145.091C196.847 151.136 197.847 156.239 199.847 160.398C201.869 164.557 204.585 167.705 207.994 169.841C211.426 171.977 215.256 173.045 219.483 173.045C223.71 173.045 227.528 171.977 230.938 169.841C234.369 167.705 237.085 164.557 239.085 160.398C241.108 156.239 242.119 151.136 242.119 145.091ZM310.335 110.182H318.79V156.409C318.79 161.182 317.665 165.443 315.415 169.193C313.188 172.92 310.04 175.864 305.972 178.023C301.903 180.159 297.131 181.227 291.653 181.227C286.176 181.227 281.403 180.159 277.335 178.023C273.267 175.864 270.108 172.92 267.858 169.193C265.631 165.443 264.517 161.182 264.517 156.409V110.182H272.972V155.727C272.972 159.136 273.722 162.17 275.222 164.83C276.722 167.466 278.858 169.545 281.631 171.068C284.426 172.568 287.767 173.318 291.653 173.318C295.54 173.318 298.881 172.568 301.676 171.068C304.472 169.545 306.608 167.466 308.085 164.83C309.585 162.17 310.335 159.136 310.335 155.727V110.182ZM335.673 180V110.182H359.264C364.719 110.182 369.196 111.114 372.696 112.977C376.196 114.818 378.787 117.352 380.469 120.58C382.151 123.807 382.991 127.477 382.991 131.591C382.991 135.705 382.151 139.352 380.469 142.534C378.787 145.716 376.207 148.216 372.73 150.034C369.253 151.83 364.81 152.727 359.401 152.727H340.31V145.091H359.128C362.855 145.091 365.855 144.545 368.128 143.455C370.423 142.364 372.082 140.818 373.105 138.818C374.151 136.795 374.673 134.386 374.673 131.591C374.673 128.795 374.151 126.352 373.105 124.261C372.06 122.17 370.389 120.557 368.094 119.42C365.798 118.261 362.764 117.682 358.991 117.682H344.128V180H335.673ZM368.537 148.636L385.719 180H375.901L358.991 148.636H368.537ZM129.517 296V226.182H137.972V288.5H170.426V296H129.517ZM239.707 261.091C239.707 268.455 238.378 274.818 235.719 280.182C233.06 285.545 229.412 289.682 224.776 292.591C220.139 295.5 214.844 296.955 208.889 296.955C202.935 296.955 197.639 295.5 193.003 292.591C188.366 289.682 184.719 285.545 182.06 280.182C179.401 274.818 178.071 268.455 178.071 261.091C178.071 253.727 179.401 247.364 182.06 242C184.719 236.636 188.366 232.5 193.003 229.591C197.639 226.682 202.935 225.227 208.889 225.227C214.844 225.227 220.139 226.682 224.776 229.591C229.412 232.5 233.06 236.636 235.719 242C238.378 247.364 239.707 253.727 239.707 261.091ZM231.526 261.091C231.526 255.045 230.514 249.943 228.491 245.784C226.491 241.625 223.776 238.477 220.344 236.341C216.935 234.205 213.116 233.136 208.889 233.136C204.662 233.136 200.832 234.205 197.401 236.341C193.991 238.477 191.276 241.625 189.253 245.784C187.253 249.943 186.253 255.045 186.253 261.091C186.253 267.136 187.253 272.239 189.253 276.398C191.276 280.557 193.991 283.705 197.401 285.841C200.832 287.977 204.662 289.045 208.889 289.045C213.116 289.045 216.935 287.977 220.344 285.841C223.776 283.705 226.491 280.557 228.491 276.398C230.514 272.239 231.526 267.136 231.526 261.091ZM301.651 248C300.901 245.705 299.912 243.648 298.685 241.83C297.48 239.989 296.037 238.42 294.355 237.125C292.696 235.83 290.81 234.841 288.696 234.159C286.582 233.477 284.264 233.136 281.741 233.136C277.605 233.136 273.844 234.205 270.457 236.341C267.071 238.477 264.378 241.625 262.378 245.784C260.378 249.943 259.378 255.045 259.378 261.091C259.378 267.136 260.389 272.239 262.412 276.398C264.435 280.557 267.173 283.705 270.628 285.841C274.082 287.977 277.969 289.045 282.287 289.045C286.287 289.045 289.81 288.193 292.855 286.489C295.923 284.761 298.31 282.33 300.014 279.193C301.741 276.034 302.605 272.318 302.605 268.045L305.196 268.591H284.196V261.091H310.787V268.591C310.787 274.341 309.56 279.341 307.105 283.591C304.673 287.841 301.31 291.136 297.014 293.477C292.741 295.795 287.832 296.955 282.287 296.955C276.105 296.955 270.673 295.5 265.991 292.591C261.332 289.682 257.696 285.545 255.082 280.182C252.491 274.818 251.196 268.455 251.196 261.091C251.196 255.568 251.935 250.602 253.412 246.193C254.912 241.761 257.026 237.989 259.753 234.875C262.48 231.761 265.707 229.375 269.435 227.716C273.162 226.057 277.264 225.227 281.741 225.227C285.423 225.227 288.855 225.784 292.037 226.898C295.241 227.989 298.094 229.545 300.594 231.568C303.116 233.568 305.219 235.966 306.901 238.761C308.582 241.534 309.741 244.614 310.378 248H301.651ZM384.176 261.091C384.176 268.455 382.847 274.818 380.188 280.182C377.528 285.545 373.881 289.682 369.244 292.591C364.608 295.5 359.313 296.955 353.358 296.955C347.403 296.955 342.108 295.5 337.472 292.591C332.835 289.682 329.188 285.545 326.528 280.182C323.869 274.818 322.54 268.455 322.54 261.091C322.54 253.727 323.869 247.364 326.528 242C329.188 236.636 332.835 232.5 337.472 229.591C342.108 226.682 347.403 225.227 353.358 225.227C359.313 225.227 364.608 226.682 369.244 229.591C373.881 232.5 377.528 236.636 380.188 242C382.847 247.364 384.176 253.727 384.176 261.091ZM375.994 261.091C375.994 255.045 374.983 249.943 372.96 245.784C370.96 241.625 368.244 238.477 364.812 236.341C361.403 234.205 357.585 233.136 353.358 233.136C349.131 233.136 345.301 234.205 341.869 236.341C338.46 238.477 335.744 241.625 333.722 245.784C331.722 249.943 330.722 255.045 330.722 261.091C330.722 267.136 331.722 272.239 333.722 276.398C335.744 280.557 338.46 283.705 341.869 285.841C345.301 287.977 349.131 289.045 353.358 289.045C357.585 289.045 361.403 287.977 364.812 285.841C368.244 283.705 370.96 280.557 372.96 276.398C374.983 272.239 375.994 267.136 375.994 261.091ZM140.345 412V342.182H148.8V373.273H186.027V342.182H194.482V412H186.027V380.773H148.8V412H140.345ZM211.408 412V342.182H253.544V349.682H219.862V373.273H251.362V380.773H219.862V404.5H254.089V412H211.408ZM268.783 412V342.182H292.374C297.828 342.182 302.305 343.114 305.805 344.977C309.305 346.818 311.896 349.352 313.578 352.58C315.26 355.807 316.101 359.477 316.101 363.591C316.101 367.705 315.26 371.352 313.578 374.534C311.896 377.716 309.317 380.216 305.839 382.034C302.362 383.83 297.919 384.727 292.51 384.727H273.419V377.091H292.237C295.964 377.091 298.964 376.545 301.237 375.455C303.533 374.364 305.192 372.818 306.214 370.818C307.26 368.795 307.783 366.386 307.783 363.591C307.783 360.795 307.26 358.352 306.214 356.261C305.169 354.17 303.499 352.557 301.203 351.42C298.908 350.261 295.874 349.682 292.101 349.682H277.237V412H268.783ZM301.646 380.636L318.828 412H309.01L292.101 380.636H301.646ZM330.189 412V342.182H372.325V349.682H338.643V373.273H370.143V380.773H338.643V404.5H372.871V412H330.189Z" fill="#FEDE00"/>
<rect x="25" y="25" width="462" height="462" rx="50" stroke="white" stroke-width="50" stroke-miterlimit="2.61313"/>
</svg>
